<mxfile host="app.diagrams.net" modified="2023-12-05T01:37:47.841Z" agent="Mozilla/5.0 (Windows NT 10.0; Win64; x64) AppleWebKit/537.36 (KHTML, like Gecko) Chrome/119.0.0.0 Safari/537.36" version="22.1.5" etag="9vIwOjysbZlBpD-vxFQN" type="google">
  <diagram id="SbDjxOFhfJFgFubJpmIF" name="Page-1">
    <mxGraphModel grid="1" page="1" gridSize="10" guides="1" tooltips="1" connect="1" arrows="1" fold="1" pageScale="1" pageWidth="850" pageHeight="1100" math="0" shadow="0">
      <root>
        <mxCell id="0" />
        <mxCell id="1" parent="0" />
        <mxCell id="4" value="Librarian&lt;br&gt;" style="shape=umlLifeline;participant=umlActor;perimeter=lifelinePerimeter;whiteSpace=wrap;html=1;container=1;collapsible=0;recursiveResize=0;verticalAlign=top;spacingTop=36;outlineConnect=0;" vertex="1" parent="1">
          <mxGeometry x="30" y="40" width="20" height="440" as="geometry" />
        </mxCell>
        <mxCell id="57" style="edgeStyle=none;html=1;" edge="1" parent="4" source="5" target="4">
          <mxGeometry relative="1" as="geometry" />
        </mxCell>
        <mxCell id="5" value="" style="html=1;points=[];perimeter=orthogonalPerimeter;" vertex="1" parent="4">
          <mxGeometry x="5" y="60" width="10" height="380" as="geometry" />
        </mxCell>
        <mxCell id="8" value="&lt;u&gt;app: Library&lt;br&gt;Application&lt;/u&gt;" style="shape=umlLifeline;perimeter=lifelinePerimeter;whiteSpace=wrap;html=1;container=1;collapsible=0;recursiveResize=0;outlineConnect=0;" vertex="1" parent="1">
          <mxGeometry x="110" y="40" width="160" height="450" as="geometry" />
        </mxCell>
        <mxCell id="37" value="" style="html=1;points=[];perimeter=orthogonalPerimeter;" vertex="1" parent="8">
          <mxGeometry x="75" y="80" width="10" height="40" as="geometry" />
        </mxCell>
        <mxCell id="48" value="&lt;u style=&quot;&quot;&gt;b: Book&lt;/u&gt;" style="shape=umlLifeline;perimeter=lifelinePerimeter;whiteSpace=wrap;html=1;container=1;collapsible=0;recursiveResize=0;outlineConnect=0;" vertex="1" parent="1">
          <mxGeometry x="500" y="40" width="120" height="440" as="geometry" />
        </mxCell>
        <mxCell id="71" value="" style="html=1;points=[];perimeter=orthogonalPerimeter;" vertex="1" parent="48">
          <mxGeometry x="55" y="160" width="10" height="20" as="geometry" />
        </mxCell>
        <mxCell id="84" value="" style="html=1;points=[];perimeter=orthogonalPerimeter;" vertex="1" parent="48">
          <mxGeometry x="55" y="280" width="10" height="20" as="geometry" />
        </mxCell>
        <mxCell id="62" value="1: displayBooksOnLoan()" style="html=1;verticalAlign=bottom;labelBackgroundColor=none;endArrow=open;endFill=0;elbow=vertical;entryX=0.001;entryY=0.001;entryDx=0;entryDy=0;entryPerimeter=0;" edge="1" parent="1" source="5" target="37">
          <mxGeometry width="160" relative="1" as="geometry">
            <mxPoint x="80" y="290" as="sourcePoint" />
            <mxPoint x="240" y="290" as="targetPoint" />
          </mxGeometry>
        </mxCell>
        <mxCell id="73" value="2.2: checkBookOnLoan()" style="html=1;verticalAlign=bottom;endArrow=block;entryX=-0.005;entryY=-0.005;entryDx=0;entryDy=0;entryPerimeter=0;" edge="1" parent="1" source="65" target="71">
          <mxGeometry width="80" relative="1" as="geometry">
            <mxPoint x="380" y="370" as="sourcePoint" />
            <mxPoint x="460" y="370" as="targetPoint" />
          </mxGeometry>
        </mxCell>
        <mxCell id="74" value="2.3: isBookOnLoan: boolean" style="html=1;verticalAlign=bottom;endArrow=open;dashed=1;endSize=8;exitX=-0.005;exitY=0.997;exitDx=0;exitDy=0;exitPerimeter=0;" edge="1" parent="1" source="71" target="65">
          <mxGeometry relative="1" as="geometry">
            <mxPoint x="460" y="370" as="sourcePoint" />
            <mxPoint x="380" y="370" as="targetPoint" />
          </mxGeometry>
        </mxCell>
        <mxCell id="83" value="2.4. display()" style="html=1;verticalAlign=bottom;labelBackgroundColor=none;endArrow=open;endFill=0;entryX=-0.003;entryY=0.004;entryDx=0;entryDy=0;entryPerimeter=0;" edge="1" parent="1" source="65" target="84">
          <mxGeometry width="160" relative="1" as="geometry">
            <mxPoint x="360" y="410" as="sourcePoint" />
            <mxPoint x="520" y="410" as="targetPoint" />
          </mxGeometry>
        </mxCell>
        <mxCell id="11" value="&lt;u&gt;bc: {Book}&lt;/u&gt;" style="shape=umlLifeline;perimeter=lifelinePerimeter;whiteSpace=wrap;html=1;container=1;collapsible=0;recursiveResize=0;outlineConnect=0;" vertex="1" parent="1">
          <mxGeometry x="300" y="40" width="90" height="440" as="geometry" />
        </mxCell>
        <mxCell id="65" value="" style="html=1;points=[];perimeter=orthogonalPerimeter;" vertex="1" parent="11">
          <mxGeometry x="35" y="120" width="10" height="300" as="geometry" />
        </mxCell>
        <mxCell id="66" value="2.1: checkBooksOnLoan()" style="html=1;verticalAlign=bottom;labelBackgroundColor=none;endArrow=open;endFill=0;elbow=vertical;entryX=0.001;entryY=0.001;entryDx=0;entryDy=0;entryPerimeter=0;" edge="1" parent="1" source="37" target="65">
          <mxGeometry width="160" relative="1" as="geometry">
            <mxPoint x="185" y="200.04000000000008" as="sourcePoint" />
            <mxPoint x="380" y="330" as="targetPoint" />
          </mxGeometry>
        </mxCell>
        <mxCell id="PvrfUSv7-R6KWAdmroiR-85" value="loop(0,n)" style="shape=umlFrame;whiteSpace=wrap;html=1;pointerEvents=0;" vertex="1" parent="1">
          <mxGeometry x="270" y="170" width="340" height="280" as="geometry" />
        </mxCell>
        <mxCell id="PvrfUSv7-R6KWAdmroiR-86" value="alt" style="shape=umlFrame;whiteSpace=wrap;html=1;pointerEvents=0;" vertex="1" parent="1">
          <mxGeometry x="290" y="240" width="300" height="170" as="geometry" />
        </mxCell>
        <mxCell id="PvrfUSv7-R6KWAdmroiR-87" value="[isBookOnLoan]" style="text;html=1;align=center;verticalAlign=middle;resizable=0;points=[];autosize=1;strokeColor=none;fillColor=none;" vertex="1" parent="1">
          <mxGeometry x="335" y="270" width="110" height="30" as="geometry" />
        </mxCell>
        <mxCell id="PvrfUSv7-R6KWAdmroiR-88" value="" style="line;strokeWidth=1;fillColor=none;align=left;verticalAlign=middle;spacingTop=-1;spacingLeft=3;spacingRight=3;rotatable=0;labelPosition=right;points=[];portConstraint=eastwest;strokeColor=inherit;dashed=1;" vertex="1" parent="1">
          <mxGeometry x="290" y="340" width="300" height="8" as="geometry" />
        </mxCell>
        <mxCell id="PvrfUSv7-R6KWAdmroiR-89" value="[else]" style="text;html=1;align=center;verticalAlign=middle;resizable=0;points=[];autosize=1;strokeColor=none;fillColor=none;" vertex="1" parent="1">
          <mxGeometry x="340" y="348" width="50" height="30" as="geometry" />
        </mxCell>
      </root>
    </mxGraphModel>
  </diagram>
</mxfile>
